<svg width="132" height="32" viewBox="0 0 132 32" fill="none" xmlns="http://www.w3.org/2000/svg">
<path fill-rule="evenodd" clip-rule="evenodd" d="M0 7.86672V0H23.1524H30.8699V7.86672V15.7334V23.6002H38.5873H46.3048V31.4669H38.5873H30.8699H23.1524V23.6002V15.7334V7.86672H15.4349V15.7334V23.6002V31.4669H7.71746V23.6002V15.7334V7.86672H0ZM38.5873 7.86672V0H46.3048L54.0222 7.86672L61.7397 0H69.4572V31.4669H61.7397V11.8001L54.0222 19.6668L46.3048 11.8001V15.7334H38.5873V7.86672ZM79.7361 12.206C79.0955 11.6867 78.7752 10.953 78.7752 10.0049V9.69762H79.828V10.0049C79.828 10.6957 80.0447 11.2127 80.478 11.5557C80.9114 11.8939 81.519 12.0631 82.3009 12.0631C83.0781 12.0631 83.674 11.8916 84.0885 11.5485C84.5077 11.2007 84.7173 10.7434 84.7173 10.1764C84.7173 9.65236 84.5313 9.23787 84.1592 8.93296C83.787 8.62805 83.0664 8.30408 81.9971 7.96105C80.9231 7.61326 80.153 7.23212 79.6867 6.81763C79.2203 6.40314 78.9872 5.77665 78.9872 4.93814C78.9872 4.1568 79.2722 3.50887 79.8421 2.99433C80.4168 2.47979 81.2175 2.22252 82.2444 2.22252C83.2571 2.22252 84.0626 2.48694 84.6608 3.01577C85.259 3.53983 85.5581 4.24256 85.5581 5.12394V5.35263H84.5054V5.12394C84.5054 4.51889 84.3146 4.0377 83.9331 3.68038C83.5515 3.32306 82.9886 3.1444 82.2444 3.1444C81.4766 3.1444 80.9137 3.30162 80.5557 3.61606C80.2025 3.9305 80.0258 4.36405 80.0258 4.9167C80.0258 5.41695 80.2048 5.81238 80.5628 6.103C80.9255 6.38885 81.6415 6.70329 82.7107 7.04632C83.78 7.38934 84.5548 7.7943 85.0353 8.2612C85.5157 8.72333 85.756 9.35936 85.756 10.1693C85.756 11.003 85.4451 11.6819 84.8233 12.206C84.2016 12.7253 83.3608 12.9849 82.3009 12.9849C81.2317 12.9849 80.3767 12.7253 79.7361 12.206ZM87.7414 11.9988C87.1243 11.3413 86.8158 10.4813 86.8158 9.41891V9.19023C86.8158 8.13257 87.1243 7.275 87.7414 6.61754C88.3585 5.96007 89.1828 5.63134 90.2143 5.63134C91.2459 5.63134 92.0702 5.96007 92.6873 6.61754C93.3043 7.275 93.6129 8.13257 93.6129 9.19023V9.41891C93.6129 10.4813 93.3043 11.3413 92.6873 11.9988C92.0702 12.6562 91.2459 12.9849 90.2143 12.9849C89.1828 12.9849 88.3585 12.6562 87.7414 11.9988ZM88.448 7.28215C88.0523 7.78716 87.8544 8.42557 87.8544 9.19737V9.41891C87.8544 10.186 88.0523 10.8244 88.448 11.3341C88.8483 11.8439 89.4348 12.0988 90.2073 12.0988C90.9845 12.0988 91.5709 11.8439 91.9666 11.3341C92.367 10.8244 92.5672 10.1836 92.5672 9.41177V9.19737C92.5672 8.42557 92.367 7.78716 91.9666 7.28215C91.5709 6.77237 90.9845 6.51749 90.2073 6.51749C89.4348 6.51749 88.8483 6.77237 88.448 7.28215ZM96.5097 12.8063H95.4923V6.66041H94.1781V5.81H95.4923V4.57367C95.4923 3.72564 95.7043 3.08247 96.1282 2.64416C96.5521 2.20108 97.1315 1.97954 97.8663 1.97954C98.0171 1.97954 98.1678 1.99145 98.3185 2.01528C98.474 2.03433 98.62 2.06054 98.7566 2.09389L98.6789 2.96574C98.5799 2.94669 98.4669 2.92763 98.3397 2.90857C98.2125 2.88951 98.083 2.87999 97.9511 2.87999C97.4895 2.87999 97.1339 3.01577 96.8842 3.28733C96.6346 3.55413 96.5097 3.98291 96.5097 4.57367V5.81H98.1772V6.66041H96.5097V12.8063ZM99.7246 6.66041H98.375V5.81H99.7246V3.58033H100.742V5.81H102.494V6.66041H100.742V10.9768C100.742 11.4151 100.815 11.7081 100.961 11.8558C101.112 12.0035 101.345 12.0774 101.661 12.0774C101.788 12.0774 101.913 12.0654 102.035 12.0416C102.162 12.0178 102.285 11.9821 102.402 11.9344V12.8206C102.294 12.8635 102.153 12.9016 101.978 12.9349C101.809 12.9683 101.62 12.9849 101.413 12.9849C100.895 12.9849 100.483 12.8325 100.177 12.5276C99.8753 12.2227 99.7246 11.7057 99.7246 10.9768V6.66041ZM105.073 12.8063L102.848 5.81H103.872L105.313 10.5909C105.37 10.7767 105.419 10.9506 105.462 11.1126C105.504 11.2698 105.542 11.4199 105.575 11.5628H105.617C105.65 11.4199 105.69 11.2698 105.737 11.1126C105.784 10.9506 105.841 10.7767 105.907 10.5909L107.574 5.81H108.606L110.259 10.5909C110.325 10.7767 110.382 10.9506 110.429 11.1126C110.476 11.2746 110.516 11.4247 110.549 11.5628H110.591C110.624 11.4247 110.662 11.2722 110.704 11.1055C110.752 10.9339 110.801 10.7624 110.853 10.5909L112.28 5.81H113.248L111.022 12.8063H110.076L108.366 7.88244C108.314 7.72999 108.262 7.57991 108.21 7.43222C108.163 7.27977 108.118 7.12255 108.076 6.96056H108.041C107.994 7.12255 107.947 7.27738 107.899 7.42508C107.857 7.57277 107.808 7.72522 107.751 7.88244L106.034 12.8063H105.073ZM114.598 12.3775C114.136 12.0107 113.905 11.4818 113.905 10.791C113.905 10.0954 114.192 9.54755 114.767 9.14735C115.342 8.74715 116.091 8.54706 117.014 8.54706H118.823V7.94676C118.823 7.49416 118.691 7.1416 118.427 6.8891C118.168 6.63183 117.732 6.50319 117.12 6.50319C116.512 6.50319 116.062 6.61039 115.77 6.82478C115.483 7.03917 115.339 7.32026 115.339 7.66805V7.77525H114.322V7.62517C114.322 7.08205 114.574 6.61515 115.078 6.22449C115.587 5.82905 116.274 5.63134 117.141 5.63134C117.994 5.63134 118.656 5.81714 119.127 6.18875C119.602 6.5556 119.84 7.1416 119.84 7.94676V11.0912C119.84 11.4008 119.864 11.6938 119.911 11.9702C119.958 12.2465 120.026 12.4871 120.116 12.6919V12.8063H119.155C119.079 12.6824 119.014 12.5252 118.957 12.3346C118.905 12.1441 118.867 11.9535 118.844 11.7629C118.67 12.0678 118.375 12.337 117.961 12.5705C117.546 12.8039 117.016 12.9206 116.371 12.9206C115.65 12.9206 115.059 12.7396 114.598 12.3775ZM115.481 9.71191C115.109 9.96442 114.923 10.3074 114.923 10.741C114.923 11.165 115.062 11.4914 115.339 11.72C115.617 11.944 116.034 12.0559 116.59 12.0559C117.155 12.0559 117.669 11.8796 118.13 11.5271C118.592 11.1745 118.823 10.7886 118.823 10.3694V9.33315H117.162C116.413 9.33315 115.853 9.45941 115.481 9.71191ZM122.723 12.8063H121.705V5.81H122.645L122.681 6.80334H122.695C122.907 6.47937 123.18 6.20305 123.514 5.97436C123.849 5.74568 124.251 5.63134 124.722 5.63134C124.821 5.63134 124.93 5.64087 125.048 5.65992C125.17 5.67898 125.257 5.69804 125.309 5.71709V6.68185C125.215 6.6628 125.111 6.6485 124.998 6.63897C124.885 6.62468 124.763 6.61754 124.631 6.61754C124.207 6.61754 123.828 6.73426 123.493 6.96771C123.159 7.20116 122.902 7.5013 122.723 7.86815V12.8063ZM126.616 12.0059C126.027 11.3484 125.733 10.4861 125.733 9.41891V9.19023C125.733 8.13257 126.027 7.275 126.616 6.61754C127.21 5.96007 127.994 5.63134 128.969 5.63134C129.949 5.63134 130.698 5.93625 131.216 6.54607C131.739 7.1559 132 8.00155 132 9.08303V9.49752H126.751C126.764 10.2435 126.961 10.8605 127.344 11.3484C127.744 11.8534 128.34 12.1059 129.131 12.1059C129.635 12.1059 130.066 12.0083 130.424 11.8129C130.782 11.6176 131.065 11.3746 131.272 11.084L131.943 11.67C131.727 11.9987 131.381 12.3013 130.905 12.5776C130.434 12.8492 129.845 12.9849 129.138 12.9849C128.046 12.9849 127.205 12.6586 126.616 12.0059ZM126.783 8.6471H130.983V8.57564C130.983 8.02299 130.827 7.5418 130.516 7.13207C130.205 6.71758 129.697 6.51034 128.99 6.51034C128.251 6.51034 127.692 6.76285 127.316 7.26786C127.03 7.64691 126.853 8.10666 126.783 8.6471ZM81.99 28.9056H79.1921V18.5005H81.99C83.3231 18.5005 84.397 18.9412 85.2119 19.8226C86.0315 20.704 86.4413 21.9093 86.4413 23.4387V23.9675C86.4413 25.4968 86.0362 26.7022 85.2261 27.5835C84.4206 28.4649 83.3419 28.9056 81.99 28.9056ZM80.2378 19.4081V27.998H81.99C83.0499 27.998 83.8789 27.6455 84.4771 26.9404C85.0753 26.2305 85.3744 25.2395 85.3744 23.9675V23.4387C85.3744 22.1618 85.0683 21.1709 84.4559 20.4658C83.8436 19.7607 83.0216 19.4081 81.99 19.4081H80.2378ZM88.5327 28.1052C87.9439 27.4478 87.6495 26.5854 87.6495 25.5182V25.2896C87.6495 24.2319 87.9439 23.3743 88.5327 22.7169C89.1263 22.0594 89.9105 21.7307 90.8856 21.7307C91.8653 21.7307 92.6143 22.0356 93.1324 22.6454C93.6553 23.2552 93.9167 24.1009 93.9167 25.1824V25.5969H88.6677C88.6806 26.3428 88.8782 26.9598 89.2605 27.4478C89.6609 27.9528 90.2567 28.2053 91.0481 28.2053C91.5521 28.2053 91.9831 28.1076 92.3411 27.9123C92.6991 27.7169 92.9817 27.474 93.1889 27.1833L93.8602 27.7694C93.6435 28.0981 93.2973 28.4006 92.8215 28.6769C92.3505 28.9485 91.7617 29.0843 91.0551 29.0843C89.9623 29.0843 89.1215 28.7579 88.5327 28.1052ZM88.7002 24.7464H92.8992V24.675C92.8992 24.1223 92.7438 23.6411 92.4329 23.2314C92.122 22.8169 91.6133 22.6097 90.9068 22.6097C90.1672 22.6097 89.6091 22.8622 89.2322 23.3672C88.9467 23.7462 88.7693 24.206 88.7002 24.7464ZM94.9765 26.8903V26.7903H95.994V26.8903C95.994 27.3477 96.1612 27.6812 96.4956 27.8908C96.83 28.1005 97.2822 28.2053 97.8522 28.2053C98.4222 28.2053 98.8696 28.1076 99.1947 27.9123C99.5197 27.7122 99.6822 27.4287 99.6822 27.0619C99.6822 26.7093 99.5432 26.4473 99.2653 26.2758C98.9874 26.0995 98.4504 25.9161 97.6544 25.7255C96.8489 25.5349 96.2365 25.2848 95.8173 24.9751C95.4028 24.6654 95.1956 24.2271 95.1956 23.6602C95.1956 23.0885 95.4334 22.624 95.9092 22.2666C96.3849 21.9093 97.0279 21.7307 97.8381 21.7307C98.6435 21.7307 99.2936 21.9165 99.7882 22.2881C100.283 22.6549 100.53 23.1647 100.53 23.8174V23.9103H99.5197V23.8103C99.5197 23.3958 99.376 23.0932 99.0887 22.9027C98.8061 22.7121 98.3892 22.6168 97.8381 22.6168C97.287 22.6168 96.8772 22.705 96.6087 22.8812C96.3449 23.0575 96.213 23.3053 96.213 23.6245C96.213 23.9151 96.3496 24.1461 96.6228 24.3177C96.896 24.4892 97.4259 24.6678 98.2125 24.8536C98.9992 25.0442 99.6092 25.2991 100.043 25.6183C100.476 25.9375 100.693 26.3925 100.693 26.9833C100.693 27.6074 100.457 28.1148 99.986 28.5054C99.515 28.8913 98.8037 29.0843 97.8522 29.0843C96.9101 29.0843 96.1941 28.889 95.7043 28.4983C95.2191 28.1076 94.9765 27.5716 94.9765 26.8903ZM103.264 21.9093V28.9056H102.247V21.9093H103.264ZM102.261 19.9941C102.148 19.8655 102.092 19.7083 102.092 19.5224C102.092 19.3366 102.148 19.1818 102.261 19.0579C102.374 18.9293 102.539 18.865 102.756 18.865C102.968 18.865 103.13 18.9293 103.243 19.0579C103.361 19.1818 103.42 19.3366 103.42 19.5224C103.42 19.713 103.361 19.8726 103.243 20.0013C103.13 20.1251 102.965 20.1871 102.749 20.1871C102.537 20.1871 102.374 20.1227 102.261 19.9941ZM107.914 32C107.325 32 106.785 31.9119 106.296 31.7356C105.806 31.5593 105.391 31.3378 105.052 31.071L105.624 30.2706C105.85 30.4802 106.161 30.6684 106.557 30.8351C106.953 31.0019 107.407 31.0853 107.921 31.0853C108.575 31.0853 109.105 30.8923 109.51 30.5064C109.915 30.1205 110.118 29.5274 110.118 28.727V27.9694C109.882 28.2791 109.567 28.5316 109.171 28.727C108.78 28.9223 108.307 29.02 107.751 29.02C106.828 29.02 106.095 28.6912 105.554 28.0338C105.017 27.3763 104.748 26.5378 104.748 25.5182V25.2896C104.748 24.27 105.017 23.4291 105.554 22.7669C106.095 22.0999 106.84 21.7664 107.786 21.7664C108.314 21.7664 108.785 21.8736 109.199 22.088C109.619 22.2976 109.934 22.5597 110.146 22.8741H110.16L110.196 21.9093H111.135V28.727C111.135 29.7942 110.841 30.6065 110.252 31.1639C109.668 31.7213 108.889 32 107.914 32ZM105.787 25.2896V25.5182C105.787 26.2805 105.966 26.907 106.324 27.3977C106.686 27.8885 107.254 28.1338 108.027 28.1338C108.54 28.1338 108.978 28.0052 109.341 27.7479C109.703 27.4859 109.963 27.1833 110.118 26.8403V23.946C109.958 23.603 109.696 23.3029 109.334 23.0456C108.976 22.7836 108.54 22.6526 108.027 22.6526C107.254 22.6526 106.686 22.9027 106.324 23.4029C105.966 23.9032 105.787 24.532 105.787 25.2896ZM114.018 28.9056H113.001V21.9093H113.94L113.976 22.9456H113.99C114.263 22.5549 114.605 22.2619 115.014 22.0666C115.424 21.8665 115.883 21.7664 116.392 21.7664C117.118 21.7664 117.695 21.9736 118.123 22.3881C118.557 22.7979 118.773 23.4863 118.773 24.4534V28.9056H117.749V24.4892C117.749 23.8317 117.6 23.3648 117.304 23.0885C117.012 22.8074 116.595 22.6668 116.053 22.6668C115.596 22.6668 115.193 22.7907 114.845 23.0385C114.496 23.2814 114.221 23.5983 114.018 23.9889V28.9056Z" fill="url(#paint0_linear_650_1416)"/>
<defs>
<linearGradient id="paint0_linear_650_1416" x1="0" y1="0" x2="93.9625" y2="77.8878" gradientUnits="userSpaceOnUse">
<stop stop-color="#0C80AB"/>
<stop offset="1" stop-color="#36B5BD"/>
</linearGradient>
</defs>
</svg>
